<svg xmlns="http://www.w3.org/2000/svg" width="64" height="64" viewBox="0 0 64 64" fill="none">
  <circle cx="32" cy="32" r="32" fill="#162447"/>
  <path fill="#ffffff" d="M32 12C20.95 12 12 20.95 12 32c0 8.84 5.73 16.33 13.67 18.97.98.18 1.35-.43 1.35-.95 0-.47-.02-1.72-.03-3.38-5.56 1.21-6.73-2.68-6.73-2.68-.91-2.31-2.22-2.92-2.22-2.92-1.81-1.24.14-1.22.14-1.22 2.01.14 3.06 2.06 3.06 2.06 1.78 3.05 4.68 2.17 5.82 1.66.18-1.29.7-2.17 1.27-2.67-4.44-.5-9.11-2.22-9.11-9.88 0-2.18.78-3.97 2.06-5.36-.21-.5-.89-2.54.2-5.3 0 0 1.68-.54 5.5 2.05 1.59-.44 3.31-.66 5.01-.67 1.71.01 3.42.23 5.01.67 3.82-2.59 5.49-2.05 5.49-2.05 1.1 2.76.41 4.8.2 5.3 1.28 1.39 2.06 3.18 2.06 5.36 0 7.68-4.68 9.37-9.14 9.87.71.61 1.35 1.83 1.35 3.68 0 2.66-.02 4.81-.02 5.46 0 .52.36 1.14 1.36.94C46.28 48.31 52 40.83 52 32c0-11.05-8.95-20-20-20z"/>
</svg>
