<svg xmlns="http://www.w3.org/2000/svg" width="16" height="16" viewBox="0 0 16 16">
  <g fill="#ffffff">
    <path d="M4 1c-1.1 0-2 .9-2 2v10c0 1.1.9 2 2 2h8c1.1 0 2-.9 2-2V3c0-1.1-.9-2-2-2H4zm0 1h8c.55 0 1 .45 1 1v10c0 .55-.45 1-1 1H4c-.55 0-1-.45-1-1V3c0-.55.45-1 1-1z"/>
    <path d="M5 4h6v1H5V4zm0 2h6v1H5V6zm0 2h3v1H5V8z"/>
    <path d="M10.5 9a2.5 2.5 0 1 0 0 5 2.5 2.5 0 0 0 0-5zM10.5 10c.83 0 1.5.67 1.5 1.5S11.33 13 10.5 13 9 12.33 9 11.5 9.67 10 10.5 10z"/>
    <path d="M10.5 13.5l-1 2 1-.5 1 .5-1-2z"/>
  </g>
</svg>
